<svg xmlns="http://www.w3.org/2000/svg" width="512" height="512" viewBox="0 0 24 24">
    <rect width="24" height="24" fill="#1e3a8a" rx="4" />
    <path fill="none" stroke="#e0f2fe" stroke-linecap="round" stroke-linejoin="round" stroke-width="1.5" d="M11.25 4.75c.33-1 .1-1.5-.75-1.5c-1.5 0-2.25 1.5-2.25 3s.75 3 2.25 3c.85 0 1.08-.5.75-1.5m.25 5.5c.33-1 .1-1.5-.75-1.5c-1.5 0-2.25 1.5-2.25 3s.75 3 2.25 3c.85 0 1.08-.5.75-1.5M17.5 7.75c.33-1 .1-1.5-.75-1.5c-1.5 0-2.25 1.5-2.25 3s.75 3 2.25 3c.85 0 1.08-.5.75-1.5m.25 5.5c.33-1 .1-1.5-.75-1.5c-1.5 0-2.25 1.5-2.25 3s.75 3 2.25 3c.85 0 1.08-.5.75-1.5" />
</svg>
